<svg xmlns="http://www.w3.org/2000/svg" width="595.5" height="130.4" viewBox="0 0 595.5 130.4"><path d="M118.31,75.72l-8.79,1.49v38A78.09,78.09,0,0,1,63.79,130.4C31.48,130.4,0,108.36,0,66,0,21.87,34,0,67.6,0a78.12,78.12,0,0,1,43.58,13.26L99.25,43.58H89a21.15,21.15,0,0,0,.16-2.82c0-19.39-13.25-29.49-28.16-29.49-23,0-34.63,23-34.63,47.05,0,27.18,14.91,55.51,43.57,55.51a32.89,32.89,0,0,0,12.26-2.15V79.53H61.64V67.27h56.67Z"/><path d="M128.25,119.47,141,114.66V57.83L128.58,52V46.56l34.3-7.46V60.81l19.88-20.88c6,0,13.92,1.33,18.72,4L195,68.6a25.43,25.43,0,0,0-13.92-4.31,25.8,25.8,0,0,0-15.24,5v47.39l12.76,2.15v8.45H128.25Z"/><path d="M291.78,109.69l11.77,2.15v7.63l-33.64,9.77V110.35L251,127.58a17.39,17.39,0,0,1-7.78,1.66c-11.11,0-26.52-7.79-26.52-30.15V53L204,48.88V40.76h37.61V93.45c0,10.77,5.47,15.58,11.76,15.58,4.81,0,10-2.82,13.59-7.63V53l-12.59-4.14V40.76h37.44ZM236.61,6.3c6.79,0,11.1,4.47,11.1,11.6,0,7-4.31,11.59-11.1,11.59-7,0-11.43-4.64-11.43-11.59C225.18,10.77,229.65,6.3,236.61,6.3Zm32-.17c7.12,0,11.6,4.64,11.6,11.77s-4.48,11.59-11.6,11.59c-6.46,0-11.1-4.47-11.1-11.59S262.13,6.13,268.59,6.13Z"/><path d="M307.69,119.47l12.76-4.81V57.83L308,52V46.56l34.3-7.46V58l18.89-17.23A37.71,37.71,0,0,1,372,39.1c13.25,0,26.84,8,26.84,29.17v48.38l12.76,2.15v8.45H363.36v-8.61l10.61-4V73.9c0-11.27-5.14-16.07-11.6-16.07-5.47,0-11.77,3.31-17.07,8.78v50l10.61,1.82v8.78H307.69Z"/><path d="M460.13,39.1a46.32,46.32,0,0,1,14.25,2.66V20.38L462,14.58V9.11L499.23,1v108.7L511,111.84v7.63l-33.64,9.77v-17.4l-21.54,16.41a23.61,23.61,0,0,1-7,1c-14.42,0-30.65-12.43-30.65-41.59C418.21,53.19,440.91,39.1,460.13,39.1Zm14.25,15.41a16.56,16.56,0,0,0-12.93-5.63c-13.09,0-19.22,12.1-19.22,28.5,0,20.21,8.78,31.81,19.39,31.81,4.14,0,8.61-1.65,12.76-5.3Z"/><path d="M595.5,101.57c-5.63,18.72-20.71,27.67-36.12,27.67-20.22,0-40.93-15.41-40.93-44.57C518.45,54.35,540,39.1,560,39.1c17.56,0,34.8,11.77,34.8,36.95a52.72,52.72,0,0,1-.67,8.62H539.33c2,17.23,13.75,24.52,26,24.52,9.28,0,18.89-4.8,25.52-14.74ZM571.8,72.74c1.83-16.07-5.3-22.87-13.42-22.87-8.28,0-17.56,6.3-19,22.87Z"/></svg>